<mxfile host="app.diagrams.net" modified="2020-04-13T03:01:31.720Z" agent="5.0 (Macintosh; Intel Mac OS X 10_13_6) AppleWebKit/537.36 (KHTML, like Gecko) Chrome/80.0.3987.149 Safari/537.36" etag="LPZ_ososfVMfXRMwgohH" version="12.9.10" type="github">
  <diagram id="OzQtG7csUN_UTZ-iVgrz" name="Page-1">
    <mxGraphModel dx="946" dy="539" grid="1" gridSize="10" guides="1" tooltips="1" connect="1" arrows="1" fold="1" page="1" pageScale="1" pageWidth="827" pageHeight="1169" math="0" shadow="0">
      <root>
        <mxCell id="0" />
        <mxCell id="1" parent="0" />
        <mxCell id="rrjN4_wIFHBDhi7qyBQp-2" value="" style="ellipse;html=1;shape=endState;fillColor=#000000;strokeColor=#000000;" parent="1" vertex="1">
          <mxGeometry x="715" y="1010" width="30" height="30" as="geometry" />
        </mxCell>
        <mxCell id="rrjN4_wIFHBDhi7qyBQp-9" value="" style="edgeStyle=orthogonalEdgeStyle;rounded=0;orthogonalLoop=1;jettySize=auto;html=1;" parent="1" source="rrjN4_wIFHBDhi7qyBQp-3" target="rrjN4_wIFHBDhi7qyBQp-8" edge="1">
          <mxGeometry relative="1" as="geometry" />
        </mxCell>
        <mxCell id="rrjN4_wIFHBDhi7qyBQp-3" value="" style="ellipse;whiteSpace=wrap;html=1;aspect=fixed;strokeColor=#000000;fillColor=#000000;" parent="1" vertex="1">
          <mxGeometry x="810.5" y="20" width="30" height="30" as="geometry" />
        </mxCell>
        <mxCell id="rrjN4_wIFHBDhi7qyBQp-11" value="" style="edgeStyle=orthogonalEdgeStyle;rounded=0;orthogonalLoop=1;jettySize=auto;html=1;" parent="1" source="rrjN4_wIFHBDhi7qyBQp-8" target="rrjN4_wIFHBDhi7qyBQp-10" edge="1">
          <mxGeometry relative="1" as="geometry" />
        </mxCell>
        <mxCell id="rrjN4_wIFHBDhi7qyBQp-8" value="规则引擎解析文本生成AST" style="rounded=1;whiteSpace=wrap;html=1;strokeColor=#000000;fillColor=#FFFFFF;" parent="1" vertex="1">
          <mxGeometry x="765.5" y="80" width="120" height="60" as="geometry" />
        </mxCell>
        <mxCell id="rrjN4_wIFHBDhi7qyBQp-13" value="" style="edgeStyle=orthogonalEdgeStyle;rounded=0;orthogonalLoop=1;jettySize=auto;html=1;entryX=0.1;entryY=0.5;entryDx=0;entryDy=0;entryPerimeter=0;" parent="1" source="rrjN4_wIFHBDhi7qyBQp-10" target="rrjN4_wIFHBDhi7qyBQp-14" edge="1">
          <mxGeometry relative="1" as="geometry">
            <mxPoint x="825.5" y="250" as="targetPoint" />
          </mxGeometry>
        </mxCell>
        <mxCell id="rrjN4_wIFHBDhi7qyBQp-10" value="解析(递归)AST" style="rounded=1;whiteSpace=wrap;html=1;strokeColor=#000000;fillColor=#FFFFFF;" parent="1" vertex="1">
          <mxGeometry x="765.5" y="170" width="120" height="60" as="geometry" />
        </mxCell>
        <mxCell id="rrjN4_wIFHBDhi7qyBQp-25" value="CONST_STRING&lt;br&gt;(String)" style="edgeStyle=orthogonalEdgeStyle;rounded=0;orthogonalLoop=1;jettySize=auto;html=1;" parent="1" target="rrjN4_wIFHBDhi7qyBQp-15" edge="1">
          <mxGeometry x="0.3333" relative="1" as="geometry">
            <mxPoint x="120" y="270" as="sourcePoint" />
            <mxPoint x="825.5" y="350" as="targetPoint" />
            <mxPoint as="offset" />
          </mxGeometry>
        </mxCell>
        <mxCell id="rrjN4_wIFHBDhi7qyBQp-27" value="CONST_INTEGER&lt;br&gt;(Integer)" style="edgeStyle=orthogonalEdgeStyle;rounded=0;orthogonalLoop=1;jettySize=auto;html=1;entryX=0.5;entryY=0;entryDx=0;entryDy=0;exitX=1.1;exitY=0.702;exitDx=0;exitDy=0;exitPerimeter=0;" parent="1" source="rrjN4_wIFHBDhi7qyBQp-14" target="rrjN4_wIFHBDhi7qyBQp-16" edge="1">
          <mxGeometry x="0.7798" relative="1" as="geometry">
            <mxPoint x="825.5" y="350" as="targetPoint" />
            <Array as="points">
              <mxPoint x="799" y="300" />
              <mxPoint x="650" y="300" />
            </Array>
            <mxPoint as="offset" />
          </mxGeometry>
        </mxCell>
        <mxCell id="rrjN4_wIFHBDhi7qyBQp-29" value="&lt;span style=&quot;font-size: 12px&quot;&gt;CONST_DOUBLE&lt;/span&gt;&lt;span style=&quot;font-size: 12px&quot;&gt;&lt;br&gt;(F&lt;/span&gt;&lt;span style=&quot;font-size: 12px&quot;&gt;loat&lt;/span&gt;&lt;span style=&quot;font-size: 12px&quot;&gt;)&lt;/span&gt;" style="edgeStyle=orthogonalEdgeStyle;rounded=0;orthogonalLoop=1;jettySize=auto;html=1;entryX=0.5;entryY=0;entryDx=0;entryDy=0;" parent="1" target="rrjN4_wIFHBDhi7qyBQp-17" edge="1">
          <mxGeometry x="0.1765" relative="1" as="geometry">
            <mxPoint x="280" y="260" as="sourcePoint" />
            <mxPoint x="680" y="320" as="targetPoint" />
            <Array as="points">
              <mxPoint x="280" y="290" />
              <mxPoint x="280" y="290" />
            </Array>
            <mxPoint as="offset" />
          </mxGeometry>
        </mxCell>
        <mxCell id="rrjN4_wIFHBDhi7qyBQp-31" value="* | /&lt;br&gt;（&lt;span style=&quot;font-size: 12px&quot;&gt;乘 or 除&lt;/span&gt;&lt;span style=&quot;font-size: 12px&quot;&gt;)&lt;/span&gt;" style="edgeStyle=orthogonalEdgeStyle;rounded=0;orthogonalLoop=1;jettySize=auto;html=1;" parent="1" source="rrjN4_wIFHBDhi7qyBQp-14" target="rrjN4_wIFHBDhi7qyBQp-23" edge="1">
          <mxGeometry x="0.8708" relative="1" as="geometry">
            <mxPoint x="1160" y="360" as="targetPoint" />
            <mxPoint as="offset" />
          </mxGeometry>
        </mxCell>
        <mxCell id="rrjN4_wIFHBDhi7qyBQp-33" value="+ | -&lt;br&gt;（&lt;span style=&quot;font-size: 12px&quot;&gt;加 or 减&lt;/span&gt;）" style="edgeStyle=orthogonalEdgeStyle;rounded=0;orthogonalLoop=1;jettySize=auto;html=1;entryX=0.5;entryY=0;entryDx=0;entryDy=0;exitX=1.1;exitY=0.13;exitDx=0;exitDy=0;exitPerimeter=0;" parent="1" source="rrjN4_wIFHBDhi7qyBQp-14" target="rrjN4_wIFHBDhi7qyBQp-21" edge="1">
          <mxGeometry x="0.8374" relative="1" as="geometry">
            <mxPoint x="825.5" y="350" as="targetPoint" />
            <Array as="points">
              <mxPoint x="874" y="290" />
              <mxPoint x="1424" y="290" />
            </Array>
            <mxPoint as="offset" />
          </mxGeometry>
        </mxCell>
        <mxCell id="rrjN4_wIFHBDhi7qyBQp-35" value="&lt;span style=&quot;font-size: 12px&quot;&gt;CONST_BOOLEAN&lt;/span&gt;&lt;span style=&quot;font-size: 12px&quot;&gt;&lt;br&gt;(Boolean)&lt;/span&gt;" style="edgeStyle=orthogonalEdgeStyle;rounded=0;orthogonalLoop=1;jettySize=auto;html=1;entryX=0.5;entryY=0;entryDx=0;entryDy=0;" parent="1" target="rrjN4_wIFHBDhi7qyBQp-19" edge="1">
          <mxGeometry x="0.3711" relative="1" as="geometry">
            <mxPoint x="440" y="250" as="sourcePoint" />
            <mxPoint x="825.5" y="350" as="targetPoint" />
            <Array as="points">
              <mxPoint x="440" y="271" />
            </Array>
            <mxPoint as="offset" />
          </mxGeometry>
        </mxCell>
        <mxCell id="rrjN4_wIFHBDhi7qyBQp-14" value="" style="html=1;points=[];perimeter=orthogonalPerimeter;strokeColor=#000000;fillColor=#000000;direction=south;" parent="1" vertex="1">
          <mxGeometry x="760" y="260" width="131" height="10" as="geometry" />
        </mxCell>
        <mxCell id="rrjN4_wIFHBDhi7qyBQp-15" value="String" style="rounded=1;whiteSpace=wrap;html=1;strokeColor=#000000;fillColor=#FFFFFF;" parent="1" vertex="1">
          <mxGeometry x="60" y="430" width="120" height="60" as="geometry" />
        </mxCell>
        <mxCell id="rrjN4_wIFHBDhi7qyBQp-80" value="否" style="edgeStyle=orthogonalEdgeStyle;rounded=0;orthogonalLoop=1;jettySize=auto;html=1;exitX=0.5;exitY=1;exitDx=0;exitDy=0;" parent="1" source="rrjN4_wIFHBDhi7qyBQp-16" edge="1">
          <mxGeometry relative="1" as="geometry">
            <mxPoint x="660" y="600" as="targetPoint" />
            <Array as="points">
              <mxPoint x="660" y="550" />
              <mxPoint x="660" y="550" />
            </Array>
          </mxGeometry>
        </mxCell>
        <mxCell id="rrjN4_wIFHBDhi7qyBQp-89" value="是" style="edgeStyle=orthogonalEdgeStyle;rounded=0;orthogonalLoop=1;jettySize=auto;html=1;exitX=1;exitY=0.5;exitDx=0;exitDy=0;entryX=0.5;entryY=0;entryDx=0;entryDy=0;" parent="1" source="rrjN4_wIFHBDhi7qyBQp-16" target="rrjN4_wIFHBDhi7qyBQp-84" edge="1">
          <mxGeometry relative="1" as="geometry" />
        </mxCell>
        <mxCell id="rrjN4_wIFHBDhi7qyBQp-16" value="是否首字符为0" style="rhombus;whiteSpace=wrap;html=1;strokeColor=#000000;fillColor=#FFFFFF;" parent="1" vertex="1">
          <mxGeometry x="590" y="430" width="120" height="60" as="geometry" />
        </mxCell>
        <mxCell id="rrjN4_wIFHBDhi7qyBQp-17" value="Float" style="rounded=1;whiteSpace=wrap;html=1;strokeColor=#000000;fillColor=#FFFFFF;" parent="1" vertex="1">
          <mxGeometry x="220" y="430" width="120" height="60" as="geometry" />
        </mxCell>
        <mxCell id="rrjN4_wIFHBDhi7qyBQp-19" value="Boolean" style="rounded=1;whiteSpace=wrap;html=1;strokeColor=#000000;fillColor=#FFFFFF;" parent="1" vertex="1">
          <mxGeometry x="380" y="430" width="120" height="60" as="geometry" />
        </mxCell>
        <mxCell id="rrjN4_wIFHBDhi7qyBQp-21" value="" style="rounded=1;whiteSpace=wrap;html=1;strokeColor=#000000;fillColor=#FFFFFF;" parent="1" vertex="1">
          <mxGeometry x="1364" y="430" width="120" height="60" as="geometry" />
        </mxCell>
        <mxCell id="rrjN4_wIFHBDhi7qyBQp-23" value="" style="rounded=1;whiteSpace=wrap;html=1;strokeColor=#000000;fillColor=#FFFFFF;" parent="1" vertex="1">
          <mxGeometry x="1534" y="430" width="120" height="60" as="geometry" />
        </mxCell>
        <mxCell id="rrjN4_wIFHBDhi7qyBQp-50" value="ID&lt;br&gt;(变量)" style="edgeStyle=orthogonalEdgeStyle;rounded=0;orthogonalLoop=1;jettySize=auto;html=1;exitX=1.1;exitY=0.435;exitDx=0;exitDy=0;exitPerimeter=0;entryX=0.5;entryY=0;entryDx=0;entryDy=0;" parent="1" source="rrjN4_wIFHBDhi7qyBQp-14" target="rrjN4_wIFHBDhi7qyBQp-49" edge="1">
          <mxGeometry x="0.6923" relative="1" as="geometry">
            <mxPoint x="920" y="370" as="targetPoint" />
            <Array as="points">
              <mxPoint x="834" y="340" />
              <mxPoint x="887" y="340" />
            </Array>
            <mxPoint as="offset" />
          </mxGeometry>
        </mxCell>
        <mxCell id="rrjN4_wIFHBDhi7qyBQp-68" value="否" style="edgeStyle=orthogonalEdgeStyle;rounded=0;orthogonalLoop=1;jettySize=auto;html=1;" parent="1" source="rrjN4_wIFHBDhi7qyBQp-49" target="rrjN4_wIFHBDhi7qyBQp-67" edge="1">
          <mxGeometry relative="1" as="geometry" />
        </mxCell>
        <mxCell id="rrjN4_wIFHBDhi7qyBQp-90" value="是" style="edgeStyle=orthogonalEdgeStyle;rounded=0;orthogonalLoop=1;jettySize=auto;html=1;exitX=0;exitY=0.5;exitDx=0;exitDy=0;entryX=1;entryY=0.5;entryDx=0;entryDy=0;" parent="1" source="rrjN4_wIFHBDhi7qyBQp-49" target="rrjN4_wIFHBDhi7qyBQp-84" edge="1">
          <mxGeometry relative="1" as="geometry" />
        </mxCell>
        <mxCell id="rrjN4_wIFHBDhi7qyBQp-49" value="是否为 null" style="rhombus;whiteSpace=wrap;html=1;strokeColor=#000000;fillColor=#FFFFFF;" parent="1" vertex="1">
          <mxGeometry x="827" y="430" width="120" height="60" as="geometry" />
        </mxCell>
        <mxCell id="rrjN4_wIFHBDhi7qyBQp-70" value="是" style="edgeStyle=orthogonalEdgeStyle;rounded=0;orthogonalLoop=1;jettySize=auto;html=1;" parent="1" source="rrjN4_wIFHBDhi7qyBQp-67" edge="1">
          <mxGeometry relative="1" as="geometry">
            <mxPoint x="887" y="680" as="targetPoint" />
          </mxGeometry>
        </mxCell>
        <mxCell id="rrjN4_wIFHBDhi7qyBQp-76" value="否" style="edgeStyle=orthogonalEdgeStyle;rounded=0;orthogonalLoop=1;jettySize=auto;html=1;exitX=0;exitY=0.5;exitDx=0;exitDy=0;entryX=1;entryY=0.5;entryDx=0;entryDy=0;" parent="1" source="rrjN4_wIFHBDhi7qyBQp-67" target="rrjN4_wIFHBDhi7qyBQp-84" edge="1">
          <mxGeometry x="-0.2289" relative="1" as="geometry">
            <mxPoint x="1140" y="570" as="targetPoint" />
            <Array as="points">
              <mxPoint x="990" y="570" />
              <mxPoint x="990" y="900" />
            </Array>
            <mxPoint y="1" as="offset" />
          </mxGeometry>
        </mxCell>
        <mxCell id="rrjN4_wIFHBDhi7qyBQp-67" value="是否为零件" style="rhombus;whiteSpace=wrap;html=1;strokeColor=#000000;fillColor=#FFFFFF;" parent="1" vertex="1">
          <mxGeometry x="827" y="540" width="120" height="60" as="geometry" />
        </mxCell>
        <mxCell id="rrjN4_wIFHBDhi7qyBQp-52" value="&lt;span style=&quot;font-size: 11px&quot;&gt;FUNCTION_CALL&lt;br&gt;（函数）&lt;br&gt;&lt;/span&gt;" style="edgeStyle=orthogonalEdgeStyle;rounded=0;orthogonalLoop=1;jettySize=auto;html=1;exitX=1.3;exitY=0.298;exitDx=0;exitDy=0;exitPerimeter=0;entryX=0.5;entryY=0;entryDx=0;entryDy=0;" parent="1" source="rrjN4_wIFHBDhi7qyBQp-14" target="rrjN4_wIFHBDhi7qyBQp-51" edge="1">
          <mxGeometry x="0.7895" relative="1" as="geometry">
            <mxPoint x="1160" y="380" as="targetPoint" />
            <Array as="points">
              <mxPoint x="852" y="310" />
              <mxPoint x="1190" y="310" />
            </Array>
            <mxPoint as="offset" />
          </mxGeometry>
        </mxCell>
        <mxCell id="rrjN4_wIFHBDhi7qyBQp-92" value="" style="edgeStyle=orthogonalEdgeStyle;rounded=0;orthogonalLoop=1;jettySize=auto;html=1;" parent="1" source="rrjN4_wIFHBDhi7qyBQp-51" target="rrjN4_wIFHBDhi7qyBQp-91" edge="1">
          <mxGeometry relative="1" as="geometry" />
        </mxCell>
        <mxCell id="rrjN4_wIFHBDhi7qyBQp-51" value="获取函数名称" style="rounded=1;whiteSpace=wrap;html=1;strokeColor=#000000;fillColor=#FFFFFF;" parent="1" vertex="1">
          <mxGeometry x="1130" y="430" width="120" height="60" as="geometry" />
        </mxCell>
        <mxCell id="rrjN4_wIFHBDhi7qyBQp-86" value="" style="edgeStyle=orthogonalEdgeStyle;rounded=0;orthogonalLoop=1;jettySize=auto;html=1;entryX=0.5;entryY=0;entryDx=0;entryDy=0;exitX=0.5;exitY=1;exitDx=0;exitDy=0;" parent="1" source="rrjN4_wIFHBDhi7qyBQp-84" target="rrjN4_wIFHBDhi7qyBQp-2" edge="1">
          <mxGeometry relative="1" as="geometry">
            <mxPoint x="825.5" y="1010" as="targetPoint" />
          </mxGeometry>
        </mxCell>
        <mxCell id="rrjN4_wIFHBDhi7qyBQp-84" value="返回相对应错误" style="rounded=1;whiteSpace=wrap;html=1;strokeColor=#000000;fillColor=#FFFFFF;" parent="1" vertex="1">
          <mxGeometry x="670" y="870" width="120" height="60" as="geometry" />
        </mxCell>
        <mxCell id="rrjN4_wIFHBDhi7qyBQp-91" value="判断函数入参个数是否一致" style="rhombus;whiteSpace=wrap;html=1;strokeColor=#000000;fillColor=#FFFFFF;" parent="1" vertex="1">
          <mxGeometry x="1130" y="540" width="120" height="60" as="geometry" />
        </mxCell>
      </root>
    </mxGraphModel>
  </diagram>
</mxfile>
